<svg width="64" height="64" viewBox="0 0 64 64" fill="none" xmlns="http://www.w3.org/2000/svg">
  <defs>
    <linearGradient id="clerint-bg" x1="10" y1="8" x2="54" y2="56" gradientUnits="userSpaceOnUse">
      <stop stop-color="#0E1628" />
      <stop offset="1" stop-color="#111C33" />
    </linearGradient>
    <linearGradient id="clerint-shield" x1="18" y1="12" x2="46" y2="52" gradientUnits="userSpaceOnUse">
      <stop stop-color="#1E3A8A" />
      <stop offset="1" stop-color="#2563EB" />
    </linearGradient>
  </defs>
  <rect width="64" height="64" rx="16" fill="url(#clerint-bg)" />
  <path
    d="M32 52c12.2-5.6 18-13.4 18-25.3V18.5L32 12 14 18.5v8.2C14 38.6 19.8 46.4 32 52z"
    fill="url(#clerint-shield)"
    stroke="#3B82F6"
    stroke-width="2.4"
    stroke-linejoin="round"
  />
  <path
    d="M39.5 26.2c-2.2-3.1-5.6-4.7-9.6-4.7-7 0-12.3 5.4-12.3 12.5s5.3 12.5 12.3 12.5c4.1 0 7.6-1.8 9.6-5"
    stroke="#F8FAFC"
    stroke-width="2.8"
    stroke-linecap="round"
    stroke-linejoin="round"
  />
  <circle cx="43.5" cy="22.5" r="3.2" fill="#38BDF8" />
</svg>
